<svg id="Layer_1" data-name="Layer 1" xmlns="http://www.w3.org/2000/svg" version="1.1"
    viewBox="0 0 257 56">
    <defs>
        <style>
            .cls-1 {
            fill: #8cc63f;
            }

            .cls-1, .cls-2, .cls-3 {
            stroke-width: 0px;
            }

            .cls-2 {
            fill: #0095b0;
            }

            .cls-3 {
            fill: #ccc;
            }
        </style>
    </defs>
    <path class="cls-2"
        d="M46.1,46.1c-7.3,7.3-18.7,9.4-28.5,5.4-9.7-4-15.4-13-15.4-24V2.5c0,0,24.9,0,24.9,0,11.2,0,20.3,5.8,24.4,15.6,4,9.7,1.9,20.7-5.4,28ZM6,6.4v21.1c0,9.4,4.9,17,13.1,20.4,8.3,3.5,18.1,1.6,24.3-4.6,6.2-6.2,7.9-15.5,4.5-23.7-3.4-8.3-11.2-13.2-20.8-13.2H6Z" />
    <path class="cls-3"
        d="M17,17c6.1-6.1,15.9-6.1,22,0s6.1,15.9,0,22c-6.1,6.1-15.9,6.1-22,0-6.1-6.1-6.1-15.9,0-22M14.2,14.2c-7.6,7.6-7.6,19.9,0,27.5,7.6,7.6,19.9,7.6,27.5,0s7.6-19.9,0-27.5-19.9-7.6-27.5,0h0Z" />
    <g>
        <path class="cls-1"
            d="M27,36.6c-4.3-.6-7.5-4.2-7.5-8.7s3.3-8.1,7.5-8.7v-3.9c-6.4.6-11.4,6-11.4,12.6s5,12,11.4,12.6v-3.9Z" />
        <path class="cls-1"
            d="M29.3,15.4v25.2c6.5-.6,11.6-6,11.6-12.6s-5.1-12-11.6-12.6ZM32.8,35.4v-14.9c2.5,1.5,4.1,4.3,4.1,7.4s-1.7,5.9-4.1,7.4Z" />
    </g>
    <g>
        <g>
            <path class="cls-1"
                d="M201.2,16.4c6.5,0,12,5,12,11.9s-5.5,12-12,12h-6.9v-23.9h6.9ZM200.6,35.4c4,0,6.8-3.1,6.8-7.1,0-4-2.8-7.1-6.8-7.1h-.8v14.2h.8Z" />
            <path class="cls-1"
                d="M223.5,16.4c4.4,0,7.8,2.4,7.8,7.1s-2,6-4.9,6.9l8.2,9.9h-6.9l-7.3-9.4v9.4h-5.4v-23.9h8.5ZM221.1,27c2.1,0,4.5-.1,4.5-3.1s-2.5-3.1-4.5-3.1h-.6v6.3h.6Z" />
            <path class="cls-1"
                d="M237,16.4l5,7.6,5-7.6h6.5l-8.8,13.2v10.7h-5.4v-10.7l-8.8-13.2h6.5Z" />
        </g>
        <g>
            <path class="cls-2"
                d="M77.7,33.9l2.3,4.7s-2.7,2.2-7.9,2.2-13-5.5-13-12.4,6.2-12.5,13-12.5,7.9,2.2,7.9,2.2l-2.3,4.7s-1.9-1.5-4.7-1.5c-5.5,0-7.9,3.8-7.9,7.1s2.4,7.1,7.9,7.1,4.7-1.5,4.7-1.5Z" />
            <path class="cls-2" d="M87.6,35.5h8.3v4.8h-13.8v-24h5.5v19.2Z" />
            <path class="cls-2" d="M104.1,40.4h-5.5v-24h5.5v24Z" />
            <path class="cls-2"
                d="M127.3,26.1h-.1l-4.9,14.1h-3.3l-4.9-14.1h-.1l-1.1,14.3h-5.5l2.2-24h5.8l5.3,13.9,5.3-13.9h5.8l2.2,24h-5.5l-1.1-14.3Z" />
            <path class="cls-2"
                d="M160.2,40.4h-5.9l-1.8-4.8h-9.2l-1.8,4.8h-5.9l9.7-24h5.1l9.7,24ZM148,23.7h0l-2.7,7h5.4l-2.7-7Z" />
            <path class="cls-2" d="M156.9,16.3h16.9v4.8h-5.7v19.2h-5.5v-19.2h-5.7v-4.8Z" />
            <path class="cls-2"
                d="M189.6,21.1h-8.3v4.8h7.9v4.8h-7.9v4.8h8.3v4.8h-13.8v-24h13.8v4.8Z" />
        </g>
    </g>
</svg>