<?xml version="1.0" encoding="UTF-8"?>
<svg xmlns="http://www.w3.org/2000/svg" xmlns:xlink="http://www.w3.org/1999/xlink" width="0" height="0">
<defs>
<symbol viewBox="0 0 257 56" id="logo">
  <path fill="#0095b0" d="M46.1 46.1c-7.3 7.3-18.7 9.4-28.5 5.4-9.7-4-15.4-13-15.4-24V2.5h24.9c11.2 0 20.3 5.8 24.4 15.6 4 9.7 1.9 20.7-5.4 28zM6 6.4v21.1c0 9.4 4.9 17 13.1 20.4 8.3 3.5 18.1 1.6 24.3-4.6 6.2-6.2 7.9-15.5 4.5-23.7-3.4-8.3-11.2-13.2-20.8-13.2H6z"></path>
  <path fill="#ccc" d="M17 17c6.1-6.1 15.9-6.1 22 0s6.1 15.9 0 22c-6.1 6.1-15.9 6.1-22 0-6.1-6.1-6.1-15.9 0-22zm-2.8-2.8c-7.6 7.6-7.6 19.9 0 27.5s19.9 7.6 27.5 0 7.6-19.9 0-27.5-19.9-7.6-27.5 0z"></path>
  <path fill="#8cc63f" d="M27 36.6c-4.3-.6-7.5-4.2-7.5-8.7s3.3-8.1 7.5-8.7v-3.9c-6.4.6-11.4 6-11.4 12.6s5 12 11.4 12.6v-3.9z"></path>
  <path fill="#8cc63f" d="M29.3 15.4v25.2c6.5-.6 11.6-6 11.6-12.6s-5.1-12-11.6-12.6zm3.5 20v-14.9c2.5 1.5 4.1 4.3 4.1 7.4s-1.7 5.9-4.1 7.4z"></path>
  <path fill="#8cc63f" d="M201.2 16.4c6.5 0 12 5 12 11.9s-5.5 12-12 12h-6.9v-23.9h6.9zm-.6 19c4 0 6.8-3.1 6.8-7.1s-2.8-7.1-6.8-7.1h-.8v14.2h.8z"></path>
  <path fill="#8cc63f" d="M223.5 16.4c4.4 0 7.8 2.4 7.8 7.1s-2 6-4.9 6.9l8.2 9.9h-6.9l-7.3-9.4v9.4h-5.4v-23.9h8.5zm-2.4 10.6c2.1 0 4.5-.1 4.5-3.1s-2.5-3.1-4.5-3.1h-.6v6.3h.6z"></path>
  <path fill="#8cc63f" d="M237 16.4l5 7.6 5-7.6h6.5l-8.8 13.2v10.7h-5.4v-10.7l-8.8-13.2h6.5z"></path>
  <path fill="#0095b0" d="M77.7 33.9l2.3 4.7s-2.7 2.2-7.9 2.2-13-5.5-13-12.4 6.2-12.5 13-12.5 7.9 2.2 7.9 2.2l-2.3 4.7s-1.9-1.5-4.7-1.5c-5.5 0-7.9 3.8-7.9 7.1s2.4 7.1 7.9 7.1 4.7-1.5 4.7-1.5z"></path>
  <path fill="#0095b0" d="M87.6 35.5h8.3v4.8h-13.8v-24h5.5v19.2z"></path>
  <path fill="#0095b0" d="M104.1 40.4h-5.5v-24h5.5v24z"></path>
  <path fill="#0095b0" d="M127.3 26.1h-.1l-4.9 14.1h-3.3l-4.9-14.1h-.1l-1.1 14.3h-5.5l2.2-24h5.8l5.3 13.9 5.3-13.9h5.8l2.2 24h-5.5l-1.1-14.3z"></path>
  <path fill="#0095b0" d="M160.2 40.4h-5.9l-1.8-4.8h-9.2l-1.8 4.8h-5.9l9.7-24h5.1l9.7 24zm-12.2-16.7l-2.7 7h5.4l-2.7-7z"></path>
  <path fill="#0095b0" d="M156.9 16.3h16.9v4.8h-5.7v19.2h-5.5v-19.2h-5.7v-4.8z"></path>
  <path fill="#0095b0" d="M189.6 21.1h-8.3v4.8h7.9v4.8h-7.9v4.8h8.3v4.8h-13.8v-24h13.8v4.8z"></path>
</symbol>
<symbol viewBox="0 0 257 56" id="logo-animated">
    <style>
        @keyframes anchoredSpin {
        0% {
        transform: rotate(0deg);
        }
        100% {
        transform: rotate(360deg);
        }
        }
        .anchored-rotation {
        transform-box: fill-box;
        transform-origin: center;
        animation: anchoredSpin 2s ease-in-out forwards;
        }
    </style>

    <path fill="#0095b0"
        d="M46.1 46.1c-7.3 7.3-18.7 9.4-28.5 5.4-9.7-4-15.4-13-15.4-24V2.5h24.9c11.2 0 20.3 5.8 24.4 15.6 4 9.7 1.9 20.7-5.4 28zM6 6.4v21.1c0 9.4 4.9 17 13.1 20.4 8.3 3.5 18.1 1.6 24.3-4.6 6.2-6.2 7.9-15.5 4.5-23.7-3.4-8.3-11.2-13.2-20.8-13.2H6z" ></path>
    <path fill="#ccc"
        d="M17 17c6.1-6.1 15.9-6.1 22 0s6.1 15.9 0 22c-6.1 6.1-15.9 6.1-22 0-6.1-6.1-6.1-15.9 0-22zm-2.8-2.8c-7.6 7.6-7.6 19.9 0 27.5s19.9 7.6 27.5 0 7.6-19.9 0-27.5-19.9-7.6-27.5 0z" ></path>
    <g class="anchored-rotation ">
        <path fill="#8cc63f"
            d="M27 36.6c-4.3-.6-7.5-4.2-7.5-8.7s3.3-8.1 7.5-8.7v-3.9c-6.4.6-11.4 6-11.4 12.6s5 12 11.4 12.6v-3.9z" ></path>
        <path fill="#8cc63f"
            d="M29.3 15.4v25.2c6.5-.6 11.6-6 11.6-12.6s-5.1-12-11.6-12.6zm3.5 20v-14.9c2.5 1.5 4.1 4.3 4.1 7.4s-1.7 5.9-4.1 7.4z" ></path>
    </g>
    <path fill="#8cc63f"
        d="M201.2 16.4c6.5 0 12 5 12 11.9s-5.5 12-12 12h-6.9v-23.9h6.9zm-.6 19c4 0 6.8-3.1 6.8-7.1s-2.8-7.1-6.8-7.1h-.8v14.2h.8z" ></path>
    <path fill="#8cc63f"
        d="M223.5 16.4c4.4 0 7.8 2.4 7.8 7.1s-2 6-4.9 6.9l8.2 9.9h-6.9l-7.3-9.4v9.4h-5.4v-23.9h8.5zm-2.4 10.6c2.1 0 4.5-.1 4.5-3.1s-2.5-3.1-4.5-3.1h-.6v6.3h.6z" ></path>
    <path fill="#8cc63f" d="M237 16.4l5 7.6 5-7.6h6.5l-8.8 13.2v10.7h-5.4v-10.7l-8.8-13.2h6.5z" ></path>
    <path fill="#0095b0"
        d="M77.7 33.9l2.3 4.7s-2.7 2.2-7.9 2.2-13-5.5-13-12.4 6.2-12.5 13-12.5 7.9 2.2 7.9 2.2l-2.3 4.7s-1.9-1.5-4.7-1.5c-5.5 0-7.9 3.8-7.9 7.1s2.4 7.1 7.9 7.1 4.7-1.5 4.7-1.5z" ></path>
    <path fill="#0095b0" d="M87.6 35.5h8.3v4.8h-13.8v-24h5.5v19.2z" ></path>
    <path fill="#0095b0" d="M104.1 40.4h-5.5v-24h5.5v24z" ></path>
    <path fill="#0095b0"
        d="M127.3 26.1h-.1l-4.9 14.1h-3.3l-4.9-14.1h-.1l-1.1 14.3h-5.5l2.2-24h5.8l5.3 13.9 5.3-13.9h5.8l2.2 24h-5.5l-1.1-14.3z" ></path>
    <path fill="#0095b0"
        d="M160.2 40.4h-5.9l-1.8-4.8h-9.2l-1.8 4.8h-5.9l9.7-24h5.1l9.7 24zm-12.2-16.7l-2.7 7h5.4l-2.7-7z" ></path>
    <path fill="#0095b0" d="M156.9 16.3h16.9v4.8h-5.7v19.2h-5.5v-19.2h-5.7v-4.8z" ></path>
    <path fill="#0095b0" d="M189.6 21.1h-8.3v4.8h7.9v4.8h-7.9v4.8h8.3v4.8h-13.8v-24h13.8v4.8z" ></path>
</symbol>
</defs>
</svg>